HIERARCHY
ROOT SpineBase
{
  OFFSET 0.000000 0.000000 0.000000
  CHANNELS 6 Xposition Yposition Zposition Zrotation Xrotation Yrotation
  JOINT SpineMid
  {
    OFFSET 0.000000 28.173257 0.000000
    CHANNELS 3 Zrotation Xrotation Yrotation
    JOINT SpineShoulder
    {
      OFFSET -0.015064 20.914150 -0.652911
      CHANNELS 3 Zrotation Xrotation Yrotation
      JOINT Neck
      {
        OFFSET -0.025370 6.910854 -0.509929
        CHANNELS 3 Zrotation Xrotation Yrotation
        JOINT Head
        {
          OFFSET -1.353222 11.755735 -1.264012
          CHANNELS 3 Zrotation Xrotation Yrotation
          End Site
          {
            OFFSET 0 0 0
          }
        }
      }
      JOINT ShoulderLeft
      {
        OFFSET -16.633203 -0.961547 3.168621
        CHANNELS 3 Zrotation Xrotation Yrotation
        JOINT ElbowLeft
        {
          OFFSET -4.559149 -23.374291 -3.571832
          CHANNELS 3 Zrotation Xrotation Yrotation
          JOINT WristLeft
          {
            OFFSET 7.960690 -1.136952 -23.747643
            CHANNELS 3 Zrotation Xrotation Yrotation
            JOINT HandLeft
            {
              OFFSET 12.204353 1.424815 -4.377938
              CHANNELS 3 Zrotation Xrotation Yrotation
              JOINT HandTipLeft
              {
                OFFSET 2.576536 0.682579 -1.426551
                CHANNELS 3 Zrotation Xrotation Yrotation
                End Site
                {
                  OFFSET 0 0 0
                }
              }
              JOINT ThumbLeft
              {
                OFFSET 2.958444 1.113859 -0.702530
                CHANNELS 3 Zrotation Xrotation Yrotation
                End Site
                {
                  OFFSET 0 0 0
                }
              }
            }
          }
        }
      }
      JOINT ShoulderRight
      {
        OFFSET 15.965093 -1.497942 -4.060690
        CHANNELS 3 Zrotation Xrotation Yrotation
        JOINT ElbowRight
        {
          OFFSET 9.800959 -23.282245 -5.040729
          CHANNELS 3 Zrotation Xrotation Yrotation
          JOINT WristRight
          {
            OFFSET -18.410635 -0.175045 -10.382846
            CHANNELS 3 Zrotation Xrotation Yrotation
            JOINT HandRight
            {
              OFFSET -6.630006 1.225438 -7.298613
              CHANNELS 3 Zrotation Xrotation Yrotation
              JOINT HandTipRight
              {
                OFFSET -4.579899 -0.634738 -2.880336
                CHANNELS 3 Zrotation Xrotation Yrotation
                End Site
                {
                  OFFSET 0 0 0
                }
              }
              JOINT ThumbRight
              {
                OFFSET -3.391700 0.704628 -2.102475
                CHANNELS 3 Zrotation Xrotation Yrotation
                End Site
                {
                  OFFSET 0 0 0
                }
              }
            }
          }
        }
      }
    }
  }
  JOINT HipLeft
  {
    OFFSET -6.124125 0.016312 -2.201816
    CHANNELS 3 Zrotation Xrotation Yrotation
    JOINT KneeLeft
    {
      OFFSET -5.384364 -30.741973 4.189616
      CHANNELS 3 Zrotation Xrotation Yrotation
      JOINT AnkleLeft
      {
        OFFSET -2.098937 -38.414889 9.354005
        CHANNELS 3 Zrotation Xrotation Yrotation
        JOINT FootLeft
        {
          OFFSET -3.136663 -2.760051 -12.796892
          CHANNELS 3 Zrotation Xrotation Yrotation
          End Site
          {
            OFFSET 0 0 0
          }
        }
      }
    }
  }
  JOINT HipRight
  {
    OFFSET 5.631115 0.888161 -4.502786
    CHANNELS 3 Zrotation Xrotation Yrotation
    JOINT KneeRight
    {
      OFFSET 8.362784 -32.715288 4.418084
      CHANNELS 3 Zrotation Xrotation Yrotation
      JOINT AnkleRight
      {
        OFFSET 2.680138 -33.460039 9.107036
        CHANNELS 3 Zrotation Xrotation Yrotation
        JOINT FootRight
        {
          OFFSET -1.882321 -4.290153 -12.810446
          CHANNELS 3 Zrotation Xrotation Yrotation
          End Site
          {
            OFFSET 0 0 0
          }
        }
      }
    }
  }
}
MOTION
Frames: 14
Frame Time: 0.033333
27.543968 76.851441 378.722974 -0.195784 -1.859118 22.170479 -1.212736 -0.739775 -22.204347 -0.467188 -0.406334 -0.082003 2.355031 3.996875 0.182642 0.000000 0.000000 0.000000 -11.110428 12.897694 1.881546 16.421581 -3.808338 -18.106010 -39.623519 -19.969025 -13.310623 35.636666 11.613110 32.641430 0.000000 0.000000 0.000000 0.000000 0.000000 0.000000 -13.968055 6.409309 6.356591 6.334967 2.079583 -9.700073 4.482353 0.136852 9.036136 -15.204568 6.609112 1.057070 0.000000 0.000000 0.000000 0.000000 0.000000 0.000000 -0.064838 3.863541 -22.670808 8.725368 -1.742802 2.482162 -3.339441 -15.353155 -4.070921 0.000000 0.000000 0.000000 1.518922 0.157002 -22.331770 4.491864 -2.559657 1.439242 2.857006 -46.422853 3.415915 0.000000 0.000000 0.000000
27.295893 76.775592 378.767393 -0.770996 -2.123908 21.459645 -1.250110 -0.752126 -21.527585 -0.522304 -0.385907 -0.112367 2.173480 3.672431 0.104431 0.000000 0.000000 0.000000 -13.815360 12.375903 2.978367 19.362037 -3.081814 -14.830467 -32.386733 -21.736132 0.460114 23.131146 2.431152 15.598834 0.000000 0.000000 0.000000 0.000000 0.000000 0.000000 -14.856317 6.691620 7.024778 8.531601 1.396262 -10.705614 2.979831 1.117705 9.549255 -15.652610 6.660425 0.877377 0.000000 0.000000 0.000000 0.000000 0.000000 0.000000 0.487732 3.659116 -21.930046 8.867927 -1.304583 2.432780 -4.760975 -9.932417 -3.714970 0.000000 0.000000 0.000000 2.305246 0.460103 -21.565822 4.728601 -2.783176 1.470468 2.104543 -44.771620 3.625241 0.000000 0.000000 0.000000
27.076300 76.698536 378.803910 -1.376419 -2.370808 20.739526 -1.246428 -0.773876 -20.845256 -0.558050 -0.354077 -0.140550 1.062687 3.890108 0.056861 0.000000 0.000000 0.000000 -16.552094 11.835513 4.042190 22.833244 -0.309412 -8.277228 -24.392307 -22.618154 13.015327 0.549539 -1.540156 -8.419482 0.000000 0.000000 0.000000 0.000000 0.000000 0.000000 -15.077174 7.113073 7.549709 10.570002 0.015619 -10.242232 0.563008 2.682179 7.210004 -15.876113 6.553824 0.836349 0.000000 0.000000 0.000000 0.000000 0.000000 0.000000 1.068609 3.438833 -21.183750 8.968296 -0.917121 2.375534 -5.104472 -9.156086 -3.921342 0.000000 0.000000 0.000000 3.144933 0.564856 -20.821972 4.671135 -2.957030 1.458280 1.804272 -44.483713 2.756865 0.000000 0.000000 0.000000
26.912418 76.610751 378.844047 -1.926148 -2.609198 19.799515 -1.152299 -0.728001 -19.938549 -0.541986 -0.289394 -0.159980 0.301333 3.377075 -0.055471 0.000000 0.000000 0.000000 -18.781824 11.212685 4.846263 25.044635 -0.375670 -6.393100 -18.927678 -21.213594 21.127601 -13.849582 1.930031 -22.445827 0.000000 0.000000 0.000000 0.000000 0.000000 0.000000 -16.374279 7.285273 8.312253 13.208663 -1.243411 -9.240393 -1.778564 4.503558 2.559350 -15.325179 4.407230 4.499133 0.000000 0.000000 0.000000 0.000000 0.000000 0.000000 1.651531 3.223097 -20.211479 8.961044 -0.697374 2.314997 -4.838340 -10.677650 -4.683242 0.000000 0.000000 0.000000 4.124738 0.702404 -19.825443 4.274006 -2.935139 1.378076 -2.134452 -25.868646 2.279149 0.000000 0.000000 0.000000
26.755678 76.516251 378.887469 -2.497128 -2.834288 18.670601 -1.033307 -0.690809 -18.845593 -0.557529 -0.247895 -0.180920 -0.027427 3.147652 -0.116740 0.000000 0.000000 0.000000 -19.935662 10.900386 5.349847 26.422768 -0.331420 -4.921877 -16.275134 -20.263880 24.849441 -21.449073 6.673977 -31.286135 0.000000 0.000000 0.000000 0.000000 0.000000 0.000000 -16.926760 6.964949 8.509240 14.609432 -1.330696 -8.231364 -2.958497 5.684063 -1.313631 -14.412227 2.565456 7.477843 0.000000 0.000000 0.000000 0.000000 0.000000 0.000000 2.286704 3.034785 -19.056820 8.867896 -0.480583 2.241979 -5.196748 -9.257078 -4.663978 0.000000 0.000000 0.000000 4.694974 0.745777 -18.746197 4.389670 -2.612118 1.429565 -3.752021 -17.271202 1.569897 0.000000 0.000000 0.000000
26.584097 76.422011 378.937705 -3.097166 -3.055622 17.428948 -0.840376 -0.651412 -17.642096 -0.590059 -0.218753 -0.200843 -0.438351 3.005466 -0.169310 0.000000 0.000000 0.000000 -20.320161 10.493008 5.626053 27.211832 -0.077867 -4.646064 -16.482272 -20.419066 25.251583 -17.759844 6.826919 -31.426909 0.000000 0.000000 0.000000 0.000000 0.000000 0.000000 -17.115541 6.361210 8.378896 15.170096 -0.641453 -7.321669 -2.540707 5.473633 -4.666934 -13.125730 2.054478 8.281415 0.000000 0.000000 0.000000 0.000000 0.000000 0.000000 3.013176 2.981325 -17.815115 8.703561 -0.269555 2.180306 -5.987914 -5.348922 -4.765921 0.000000 0.000000 0.000000 5.292575 0.790305 -17.562592 4.457212 -2.139347 1.474688 -3.963190 -16.126601 0.709910 0.000000 0.000000 0.000000
26.433228 76.340476 378.987297 -3.652169 -3.258527 16.237178 -0.700899 -0.612142 -16.487979 -0.647162 -0.219464 -0.222842 -0.288699 3.319348 -0.128951 0.000000 0.000000 0.000000 -19.441687 10.080444 5.581517 27.023359 0.416251 -5.987495 -19.203995 -21.753812 23.107829 -4.361884 3.272946 -23.118166 0.000000 0.000000 0.000000 0.000000 0.000000 0.000000 -17.401070 5.863848 8.346798 16.011817 -0.147420 -6.925955 -2.594470 5.591542 -6.786128 -12.238292 2.619089 6.225438 0.000000 0.000000 0.000000 0.000000 0.000000 0.000000 3.779682 2.709524 -16.572940 8.467421 0.046722 2.062740 -6.435819 -3.682555 -4.663327 0.000000 0.000000 0.000000 5.932189 1.113509 -16.364131 4.535660 -2.307042 1.469996 -4.414754 -13.533644 0.404019 0.000000 0.000000 0.000000
26.268265 76.257708 379.070440 -4.211233 -3.497574 15.197637 -0.503423 -0.530032 -15.486751 -0.684758 -0.214683 -0.241699 -0.059769 3.667523 -0.076007 0.000000 0.000000 0.000000 -19.760955 9.896958 5.830259 27.840108 1.045779 -5.055565 -20.839540 -22.228834 20.719330 -3.327322 3.065777 -22.204828 0.000000 0.000000 0.000000 0.000000 0.000000 0.000000 -17.526104 5.402860 8.250505 16.483759 0.487139 -7.105116 -2.344161 5.330185 -7.287495 -12.207872 3.693966 3.806588 0.000000 0.000000 0.000000 0.000000 0.000000 0.000000 4.984302 2.261660 -15.424719 7.850706 0.353578 1.879349 -5.285744 -10.341111 -4.949794 0.000000 0.000000 0.000000 6.410540 1.511560 -15.347370 4.903140 -2.579115 1.521005 -4.979131 -10.474267 -0.059393 0.000000 0.000000 0.000000
26.090595 76.220524 379.167016 -4.738495 -3.718595 14.446252 -0.279150 -0.430040 -14.771843 -0.687715 -0.216735 -0.256904 0.100744 3.968201 -0.029082 0.000000 0.000000 0.000000 -20.232407 9.855943 6.081952 28.648786 1.533690 -3.687247 -23.274141 -21.904177 15.178723 -4.559367 1.339385 -18.363021 0.000000 0.000000 0.000000 0.000000 0.000000 0.000000 -17.483296 4.862267 8.003348 16.514020 1.409652 -7.548200 -2.062010 5.105912 -6.773631 -11.080742 3.943755 1.587043 0.000000 0.000000 0.000000 0.000000 0.000000 0.000000 5.520707 2.406128 -14.716189 8.030735 0.229549 1.938227 -5.138512 -11.873603 -5.100939 0.000000 0.000000 0.000000 6.849696 1.593314 -14.676051 5.234450 -2.260468 1.624047 -5.996627 -5.602444 0.035899 0.000000 0.000000 0.000000
25.884372 76.230365 379.244327 -5.256145 -3.892262 14.064411 -0.067893 -0.371518 -14.427612 -0.694974 -0.225336 -0.272052 0.416853 4.281794 0.024625 0.000000 0.000000 0.000000 -20.760105 9.307408 6.334351 29.832599 3.007888 -3.063319 -26.464947 -23.410165 12.594041 -1.058261 1.844687 -18.016178 0.000000 0.000000 0.000000 0.000000 0.000000 0.000000 -17.204786 4.446776 7.742432 16.579785 2.076646 -8.371747 -2.905214 5.893332 -4.876419 -7.912344 2.176179 0.279518 0.000000 0.000000 0.000000 0.000000 0.000000 0.000000 6.049499 2.482075 -14.374313 8.195207 0.030888 2.002805 -3.998611 -18.455967 -4.743331 0.000000 0.000000 0.000000 7.498460 1.873880 -14.278635 5.326222 -2.352480 1.631155 -5.642752 -8.575780 -0.549692 0.000000 0.000000 0.000000
25.653510 76.267071 379.338169 -5.739045 -4.061643 13.904764 0.153900 -0.305321 -14.303922 -0.696536 -0.243200 -0.285574 0.581959 4.475099 0.054163 0.000000 0.000000 0.000000 -20.723579 9.040467 6.426801 30.247023 4.053544 -2.128609 -27.819349 -24.662812 12.935450 0.261689 1.991647 -18.445204 0.000000 0.000000 0.000000 0.000000 0.000000 0.000000 -16.951657 4.469393 7.759067 16.201538 2.558987 -9.708719 -2.852235 5.768805 -1.604243 -3.625904 -0.211332 -1.343339 0.000000 0.000000 0.000000 0.000000 0.000000 0.000000 6.552620 2.543574 -14.254067 8.351783 -0.204323 2.070482 -3.117579 -23.292558 -4.317112 0.000000 0.000000 0.000000 8.317408 2.242490 -14.051319 5.216643 -2.984962 1.576366 -5.009326 -12.815104 -1.241469 0.000000 0.000000 0.000000
25.407273 76.319501 379.417442 -6.158237 -4.163781 14.171897 0.295710 -0.284944 -14.603064 -0.724861 -0.257939 -0.300075 0.773379 4.693667 0.089956 0.000000 0.000000 0.000000 -20.248569 8.940430 6.414833 30.096237 4.642864 -1.132616 -28.299853 -25.367817 13.859422 0.130555 0.992959 -17.141294 0.000000 0.000000 0.000000 0.000000 0.000000 0.000000 -16.661015 5.125696 8.192629 15.850711 2.283457 -11.627048 -4.220187 6.785677 3.309371 0.257116 -2.900690 -5.023114 0.000000 0.000000 0.000000 0.000000 0.000000 0.000000 7.722731 3.127850 -14.647949 7.916595 -1.095942 2.286993 -2.688509 -25.669243 -4.051399 0.000000 0.000000 0.000000 8.963566 2.184176 -14.316198 4.990429 -3.208802 1.532247 -5.171962 -11.119794 -1.234273 0.000000 0.000000 0.000000
25.257560 76.392598 379.454841 -6.452452 -4.229094 14.669551 0.421419 -0.286172 -15.123515 -0.714285 -0.251062 -0.306741 0.788515 4.529616 0.060841 0.000000 0.000000 0.000000 -19.698547 8.745781 6.322765 29.554370 4.791154 -0.235880 -26.437432 -26.227634 19.555071 -0.020906 1.631799 -20.137759 0.000000 0.000000 0.000000 0.000000 0.000000 0.000000 -16.546023 6.240074 8.938894 14.529497 2.024675 -12.205848 -2.877949 6.100032 3.290763 1.982721 -3.559232 -6.417404 0.000000 0.000000 0.000000 0.000000 0.000000 0.000000 8.319592 3.090909 -15.160794 7.715292 -1.095080 2.285228 -2.847950 -25.305092 -4.161723 0.000000 0.000000 0.000000 9.439344 2.114555 -14.798900 4.710408 -3.417688 1.459999 -5.620556 -6.969674 -0.896426 0.000000 0.000000 0.000000
25.180345 76.450735 379.478975 -6.598379 -4.260827 15.301214 0.500578 -0.270649 -15.765234 -0.647669 -0.227303 -0.306006 0.894324 4.395118 0.045175 0.000000 0.000000 0.000000 -20.029661 9.071206 6.406998 29.540803 3.366049 -0.608931 -27.708676 -28.697071 25.362902 8.223274 0.071183 -18.150077 0.000000 0.000000 0.000000 0.000000 0.000000 0.000000 -17.557609 7.520595 10.196175 13.242706 1.989231 -12.776291 -0.136847 4.670082 1.474322 0.345968 -1.999927 -6.054845 0.000000 0.000000 0.000000 0.000000 0.000000 0.000000 8.700437 3.007729 -15.792693 7.466704 -0.941895 2.236317 -4.123436 -19.118418 -4.914644 0.000000 0.000000 0.000000 9.900285 2.012710 -15.383343 4.199277 -3.232528 1.345140 -6.326492 -1.457580 -0.251056 0.000000 0.000000 0.000000
